# xmcd
#
# Track frame offsets:
#	150
#	18539
#	33776
#	36804
#	59157
#	67262
#	86937
#	96223
#	115077
#	125412
#	143104
#	166765
#	178839
#
# Disc length: 2701 seconds
#
# Revision: 1
# Processed by: cddbd v1.5.1PL0 Copyright (c) Steve Scherf et al.
# Submitted via: CDex 1.50Beta5
#
DISCID=b90a8b0d
DTITLE=坂本真綾 - LETTER-bring to light-
DYEAR=1900
DGENRE=
TTITLE0=RAIN
TTITLE1=SHOW ME YOUR MONITOR
TTITLE2=MONITOR;REPRISE
TTITLE3=PERIOD
TTITLE4=BLOCKS
TTITLE5=REMAINS
TTITLE6=BLOCKS
TTITLE7=BECOMING GENTLE
TTITLE8=YOU,MEAN MINISTER
TTITLE9=GATHERING RAIN
TTITLE10=SHADING SHADOW
TTITLE11=THERE IS...
TTITLE12=DEAR YOU
EXTD=
EXTT0=
EXTT1=
EXTT2=
EXTT3=
EXTT4=
EXTT5=
EXTT6=
EXTT7=
EXTT8=
EXTT9=
EXTT10=
EXTT11=
EXTT12=
PLAYORDER=
